<?xml version="1.0" encoding="utf-8"?>
<!-- Generator: Adobe Illustrator 27.9.4, SVG Export Plug-In . SVG Version: 9.03 Build 54784)  -->
<svg version="1.1" id="Calque_1" xmlns="http://www.w3.org/2000/svg" xmlns:xlink="http://www.w3.org/1999/xlink" x="0px" y="0px"
	 viewBox="0 0 1000 1000" style="enable-background:new 0 0 1000 1000;" xml:space="preserve">
<style type="text/css">
	.st0{fill:#3036DB;}
</style>
<path class="st0" d="M752.18,1000H378c-6.88,0-11.8,0-230.75-45.07l-26.74-5.53L19.48,741.95L30.95,147.2L247.16,0h551.29
	l179.79,184.25l-25.34,677.5L752.18,1000z M381.92,883.68h336.59l124.86-85.96l21.2-566.65L752.63,116.38H280.55L141.6,210.95
	l-9.68,504.36l63.83,131.03c83.07,17.04,167.93,34.2,186.22,37.34H381.92z"/>
<path class="st0" d="M473.61,766.67l-173.02-95.38l-69.86-167.17l104.73-218.77l224.88-52.01L717.2,343.8l33.53,163.63L677.81,700.8
	L473.61,766.67z M387.54,587.91l97.35,53.64l108.42-34.96l41.13-109.07l-17.21-84.02l-79.69-56.13L411.8,386.41l-57.9,120.9
	l33.64,80.48V587.91z"/>
<path class="st0" d="M756.76,300l37.79-19.86l4.93-46.27l-17.51-34.31l-39.42-16.23l-40.58,44.49l4.93,63.78L756.76,300z"/>
</svg>
